<mxfile host="Electron" agent="Mozilla/5.0 (Windows NT 10.0; Win64; x64) AppleWebKit/537.36 (KHTML, like Gecko) draw.io/26.0.15 Chrome/132.0.6834.196 Electron/34.2.0 Safari/537.36" version="26.0.15">
  <diagram name="Page-1" id="sBuq5ZvAdyzZkAi1mOIm">
    <mxGraphModel dx="792" dy="1195" grid="1" gridSize="10" guides="1" tooltips="1" connect="1" arrows="1" fold="1" page="1" pageScale="1" pageWidth="850" pageHeight="1100" math="0" shadow="0">
      <root>
        <mxCell id="0" />
        <mxCell id="1" parent="0" />
        <mxCell id="VcI97tIodNVsf4wp7b5e-1" value="User" style="shape=umlLifeline;perimeter=lifelinePerimeter;whiteSpace=wrap;html=1;container=1;dropTarget=0;collapsible=0;recursiveResize=0;outlineConnect=0;portConstraint=eastwest;newEdgeStyle={&quot;edgeStyle&quot;:&quot;elbowEdgeStyle&quot;,&quot;elbow&quot;:&quot;vertical&quot;,&quot;curved&quot;:0,&quot;rounded&quot;:0};" parent="1" vertex="1">
          <mxGeometry x="170" y="130" width="100" height="370" as="geometry" />
        </mxCell>
        <mxCell id="VcI97tIodNVsf4wp7b5e-2" value="LoginPage" style="shape=umlLifeline;perimeter=lifelinePerimeter;whiteSpace=wrap;html=1;container=1;dropTarget=0;collapsible=0;recursiveResize=0;outlineConnect=0;portConstraint=eastwest;newEdgeStyle={&quot;edgeStyle&quot;:&quot;elbowEdgeStyle&quot;,&quot;elbow&quot;:&quot;vertical&quot;,&quot;curved&quot;:0,&quot;rounded&quot;:0};" parent="1" vertex="1">
          <mxGeometry x="375" y="130" width="100" height="370" as="geometry" />
        </mxCell>
        <mxCell id="VcI97tIodNVsf4wp7b5e-13" value="6. Confirm Login" style="edgeStyle=orthogonalEdgeStyle;rounded=0;orthogonalLoop=1;jettySize=auto;html=1;curved=0;exitX=0;exitY=1;exitDx=0;exitDy=-5;exitPerimeter=0;" parent="VcI97tIodNVsf4wp7b5e-2" source="VcI97tIodNVsf4wp7b5e-7" edge="1">
          <mxGeometry relative="1" as="geometry">
            <mxPoint x="-154" y="286" as="targetPoint" />
            <Array as="points">
              <mxPoint x="-122" y="285" />
            </Array>
          </mxGeometry>
        </mxCell>
        <mxCell id="VcI97tIodNVsf4wp7b5e-7" value="" style="html=1;points=[[0,0,0,0,5],[0,1,0,0,-5],[1,0,0,0,5],[1,1,0,0,-5]];perimeter=orthogonalPerimeter;outlineConnect=0;targetShapes=umlLifeline;portConstraint=eastwest;newEdgeStyle={&quot;curved&quot;:0,&quot;rounded&quot;:0};" parent="VcI97tIodNVsf4wp7b5e-2" vertex="1">
          <mxGeometry x="45" y="70" width="10" height="220" as="geometry" />
        </mxCell>
        <mxCell id="VcI97tIodNVsf4wp7b5e-8" value="3. Login Information" style="edgeStyle=elbowEdgeStyle;rounded=0;orthogonalLoop=1;jettySize=auto;html=1;elbow=horizontal;curved=0;entryX=0;entryY=0;entryDx=0;entryDy=5;entryPerimeter=0;" parent="1" edge="1">
          <mxGeometry x="-0.0025" relative="1" as="geometry">
            <mxPoint x="219.75" y="260" as="sourcePoint" />
            <mxPoint x="420.25" y="260" as="targetPoint" />
            <mxPoint as="offset" />
          </mxGeometry>
        </mxCell>
        <mxCell id="VcI97tIodNVsf4wp7b5e-9" value="Database" style="shape=umlLifeline;perimeter=lifelinePerimeter;whiteSpace=wrap;html=1;container=1;dropTarget=0;collapsible=0;recursiveResize=0;outlineConnect=0;portConstraint=eastwest;newEdgeStyle={&quot;edgeStyle&quot;:&quot;elbowEdgeStyle&quot;,&quot;elbow&quot;:&quot;vertical&quot;,&quot;curved&quot;:0,&quot;rounded&quot;:0};" parent="1" vertex="1">
          <mxGeometry x="560" y="130" width="100" height="370" as="geometry" />
        </mxCell>
        <mxCell id="VcI97tIodNVsf4wp7b5e-10" value="" style="html=1;points=[[0,0,0,0,5],[0,1,0,0,-5],[1,0,0,0,5],[1,1,0,0,-5]];perimeter=orthogonalPerimeter;outlineConnect=0;targetShapes=umlLifeline;portConstraint=eastwest;newEdgeStyle={&quot;curved&quot;:0,&quot;rounded&quot;:0};" parent="VcI97tIodNVsf4wp7b5e-9" vertex="1">
          <mxGeometry x="45" y="130" width="10" height="80" as="geometry" />
        </mxCell>
        <mxCell id="VcI97tIodNVsf4wp7b5e-14" value="alt" style="shape=umlFrame;whiteSpace=wrap;html=1;pointerEvents=0;recursiveResize=0;container=1;collapsible=0;width=68;height=30;" parent="1" vertex="1">
          <mxGeometry x="110" y="380" width="560" height="120" as="geometry" />
        </mxCell>
        <mxCell id="VcI97tIodNVsf4wp7b5e-15" value="[if login ID and password match]" style="text;html=1;" parent="VcI97tIodNVsf4wp7b5e-14" vertex="1">
          <mxGeometry width="100" height="20" relative="1" as="geometry">
            <mxPoint x="70" as="offset" />
          </mxGeometry>
        </mxCell>
        <mxCell id="VcI97tIodNVsf4wp7b5e-16" value="[else]" style="line;strokeWidth=1;dashed=1;labelPosition=center;verticalLabelPosition=bottom;align=left;verticalAlign=top;spacingLeft=20;spacingTop=15;html=1;whiteSpace=wrap;" parent="VcI97tIodNVsf4wp7b5e-14" vertex="1">
          <mxGeometry y="60" width="570" height="10" as="geometry" />
        </mxCell>
        <mxCell id="VcI97tIodNVsf4wp7b5e-17" value="6. Reject Login" style="edgeStyle=orthogonalEdgeStyle;rounded=0;orthogonalLoop=1;jettySize=auto;html=1;curved=0;exitX=0;exitY=1;exitDx=0;exitDy=-5;exitPerimeter=0;" parent="VcI97tIodNVsf4wp7b5e-14" edge="1">
          <mxGeometry relative="1" as="geometry">
            <mxPoint x="110" y="100" as="targetPoint" />
            <mxPoint x="315" y="100" as="sourcePoint" />
            <mxPoint x="1" as="offset" />
          </mxGeometry>
        </mxCell>
        <mxCell id="VcI97tIodNVsf4wp7b5e-18" value="1. Enters page" style="edgeStyle=elbowEdgeStyle;rounded=0;orthogonalLoop=1;jettySize=auto;html=1;elbow=vertical;curved=0;entryX=0;entryY=0;entryDx=0;entryDy=5;entryPerimeter=0;" parent="1" edge="1">
          <mxGeometry relative="1" as="geometry">
            <mxPoint x="219.75" y="210" as="sourcePoint" />
            <mxPoint x="420.25" y="210" as="targetPoint" />
          </mxGeometry>
        </mxCell>
        <mxCell id="VcI97tIodNVsf4wp7b5e-19" value="2.Display Page" style="edgeStyle=orthogonalEdgeStyle;rounded=0;orthogonalLoop=1;jettySize=auto;html=1;curved=0;" parent="1" edge="1">
          <mxGeometry relative="1" as="geometry">
            <mxPoint x="220.5" y="230" as="targetPoint" />
            <mxPoint x="419.5" y="231" as="sourcePoint" />
          </mxGeometry>
        </mxCell>
        <mxCell id="VcI97tIodNVsf4wp7b5e-20" value="4. Compare Login Details" style="edgeStyle=elbowEdgeStyle;rounded=0;orthogonalLoop=1;jettySize=auto;html=1;elbow=vertical;curved=0;" parent="1" edge="1">
          <mxGeometry relative="1" as="geometry">
            <mxPoint x="433" y="269" as="sourcePoint" />
            <mxPoint x="604" y="268" as="targetPoint" />
          </mxGeometry>
        </mxCell>
        <mxCell id="VcI97tIodNVsf4wp7b5e-12" value="5. Return Results" style="edgeStyle=orthogonalEdgeStyle;rounded=0;orthogonalLoop=1;jettySize=auto;html=1;curved=0;exitX=0;exitY=1;exitDx=0;exitDy=-5;exitPerimeter=0;" parent="1" source="VcI97tIodNVsf4wp7b5e-10" edge="1">
          <mxGeometry x="-0.0028" relative="1" as="geometry">
            <mxPoint x="431" y="334" as="targetPoint" />
            <Array as="points" />
            <mxPoint x="1" as="offset" />
          </mxGeometry>
        </mxCell>
      </root>
    </mxGraphModel>
  </diagram>
</mxfile>
